<svg width="140" height="34" viewBox="0 0 140 34" fill="none" xmlns="http://www.w3.org/2000/svg">
<rect width="32" height="32" rx="16" fill="black"/>
<mask id="mask0_2_26" style="mask-type:alpha" maskUnits="userSpaceOnUse" x="0" y="0" width="32" height="32">
<rect width="32" height="32" rx="16" fill="black"/>
</mask>
<g mask="url(#mask0_2_26)">
<path d="M18.355 25.9788C11.3887 30.0008 -0.987634 21.6062 -6.54512 11.9804C-12.1026 2.35454 -8.73674 -4.85748 -1.77044 -8.87948C5.19586 -12.9015 13.1246 -12.2104 18.6821 -2.58454C24.2396 7.04131 25.3213 21.9568 18.355 25.9788Z" stroke="white"/>
<g filter="url(#filter0_d_2_26)">
<path d="M22.8074 12.3975C22.8074 12.3975 22.1327 10.396 21.1217 9.64097C20.1107 8.88594 18 8.80736 18 8.80736C18 8.80736 20.0015 8.13272 20.7565 7.12171C21.5116 6.1107 21.5902 4 21.5902 4C21.5902 4 22.2648 6.00153 23.2758 6.75655C24.2868 7.51158 26.3975 7.59016 26.3975 7.59016C26.3975 7.59016 24.396 8.2648 23.641 9.27581C22.8859 10.2868 22.8074 12.3975 22.8074 12.3975Z" fill="white"/>
</g>
<g filter="url(#filter1_d_2_26)">
<path d="M9.07469 25.8301C9.07469 25.8301 7.76562 25.3113 6.94598 25.5006C6.12633 25.6898 5.17724 26.73 5.17724 26.73C5.17724 26.73 5.69602 25.421 5.50676 24.6013C5.3175 23.7817 4.2773 22.8326 4.2773 22.8326C4.2773 22.8326 5.58637 23.3513 6.40601 23.1621C7.22566 22.9728 8.17475 21.9326 8.17475 21.9326C8.17475 21.9326 7.65597 23.2417 7.84523 24.0613C8.03449 24.881 9.07469 25.8301 9.07469 25.8301Z" fill="white"/>
</g>
<path d="M9.46703 6.06754C10.0878 4.98569 11.8602 4.98569 12.4809 6.06754C13.1087 7.16171 13.889 8.33505 14.7358 9.18185C15.5826 10.0286 16.7559 10.8089 17.8501 11.4367C18.9319 12.0574 18.9319 13.8299 17.8501 14.4506C16.7559 15.0784 15.5826 15.8587 14.7358 16.7055C13.889 17.5523 13.1087 18.7256 12.4809 19.8198C11.8602 20.9016 10.0878 20.9016 9.46703 19.8198C8.83924 18.7256 8.05895 17.5523 7.21216 16.7055C6.36536 15.8587 5.19202 15.0784 4.09785 14.4506C3.016 13.8299 3.016 12.0574 4.09785 11.4367C5.19202 10.8089 6.36536 10.0286 7.21216 9.18185C8.05895 8.33505 8.83924 7.16171 9.46703 6.06754Z" fill="url(#paint0_linear_2_26)"/>
<path d="M10.974 5.22763C11.58 5.22763 12.1892 5.50208 12.5056 6.05351C13.1329 7.14688 13.9112 8.31812 14.7553 9.16229C15.5995 10.0065 16.7707 10.7847 17.8641 11.412C18.4155 11.7284 18.69 12.3376 18.69 12.9437C18.69 13.5497 18.4155 14.1589 17.8641 14.4753C16.7707 15.1026 15.5995 15.8808 14.7553 16.725C13.9112 17.5692 13.1329 18.7404 12.5056 19.8338C12.1892 20.3852 11.58 20.6597 10.974 20.6597C10.3679 20.6597 9.75875 20.3852 9.44236 19.8338C8.81501 18.7404 8.03677 17.5692 7.1926 16.725C6.34843 15.8808 5.17719 15.1026 4.08382 14.4753C3.53239 14.1589 3.25794 13.5497 3.25794 12.9437C3.25794 12.3376 3.53239 11.7284 4.08382 11.412C5.17719 10.7847 6.34843 10.0065 7.1926 9.16229C8.03677 8.31812 8.81501 7.14688 9.44236 6.05351C9.75875 5.50208 10.3679 5.22763 10.974 5.22763Z" fill="url(#paint1_radial_2_26)" fill-opacity="0.8" stroke="url(#paint2_linear_2_26)" stroke-width="0.056"/>
<g style="mix-blend-mode:screen">
<path d="M10.974 5.22763C11.58 5.22763 12.1892 5.50208 12.5056 6.05351C13.1329 7.14688 13.9112 8.31812 14.7553 9.16229C15.5995 10.0065 16.7707 10.7847 17.8641 11.412C18.4155 11.7284 18.69 12.3376 18.69 12.9437C18.69 13.5497 18.4155 14.1589 17.8641 14.4753C16.7707 15.1026 15.5995 15.8808 14.7553 16.725C13.9112 17.5692 13.1329 18.7404 12.5056 19.8338C12.1892 20.3852 11.58 20.6597 10.974 20.6597C10.3679 20.6597 9.75875 20.3852 9.44236 19.8338C8.81501 18.7404 8.03677 17.5692 7.1926 16.725C6.34843 15.8808 5.17719 15.1026 4.08382 14.4753C3.53239 14.1589 3.25794 13.5497 3.25794 12.9437C3.25794 12.3376 3.53239 11.7284 4.08382 11.412C5.17719 10.7847 6.34843 10.0065 7.1926 9.16229C8.03677 8.31812 8.81501 7.14688 9.44236 6.05351C9.75875 5.50208 10.3679 5.22763 10.974 5.22763Z" fill="url(#paint3_linear_2_26)"/>
<path d="M10.974 5.22763C11.58 5.22763 12.1892 5.50208 12.5056 6.05351C13.1329 7.14688 13.9112 8.31812 14.7553 9.16229C15.5995 10.0065 16.7707 10.7847 17.8641 11.412C18.4155 11.7284 18.69 12.3376 18.69 12.9437C18.69 13.5497 18.4155 14.1589 17.8641 14.4753C16.7707 15.1026 15.5995 15.8808 14.7553 16.725C13.9112 17.5692 13.1329 18.7404 12.5056 19.8338C12.1892 20.3852 11.58 20.6597 10.974 20.6597C10.3679 20.6597 9.75875 20.3852 9.44236 19.8338C8.81501 18.7404 8.03677 17.5692 7.1926 16.725C6.34843 15.8808 5.17719 15.1026 4.08382 14.4753C3.53239 14.1589 3.25794 13.5497 3.25794 12.9437C3.25794 12.3376 3.53239 11.7284 4.08382 11.412C5.17719 10.7847 6.34843 10.0065 7.1926 9.16229C8.03677 8.31812 8.81501 7.14688 9.44236 6.05351C9.75875 5.50208 10.3679 5.22763 10.974 5.22763Z" stroke="url(#paint4_linear_2_26)" stroke-width="0.056"/>
</g>
<g filter="url(#filter2_d_2_26)">
<path d="M10.8744 5.84422C10.8744 5.84422 11.1507 11.2725 11.7984 11.9202C12.4461 12.5679 18.1544 12.8442 18.1544 12.8442C18.1544 12.8442 12.4461 13.1205 11.7984 13.7682C11.1507 14.4159 10.8744 20.1242 10.8744 20.1242C10.8744 20.1242 10.5981 14.4159 9.9504 13.7682C9.30267 13.1205 3.87443 12.8442 3.87443 12.8442C3.87443 12.8442 9.30267 12.5679 9.9504 11.9202C10.5981 11.2725 10.8744 5.84422 10.8744 5.84422Z" fill="url(#paint5_radial_2_26)" shape-rendering="crispEdges"/>
</g>
<path d="M23.3228 16.1895C23.643 15.8677 24.113 15.7914 24.5311 15.9034C24.9491 16.0154 25.3181 16.3165 25.4345 16.7553C25.6652 17.6257 25.987 18.5775 26.4134 19.316C26.8397 20.0545 27.5031 20.809 28.1415 21.444C28.4633 21.7642 28.5396 22.2343 28.4276 22.6523C28.3156 23.0704 28.0145 23.4393 27.5757 23.5558C26.7053 23.7865 25.7535 24.1082 25.015 24.5346C24.2765 24.961 23.522 25.6244 22.887 26.2628C22.5668 26.5846 22.0967 26.6608 21.6787 26.5488C21.2606 26.4368 20.8917 26.1357 20.7752 25.6969C20.5445 24.8266 20.2228 23.8748 19.7964 23.1363C19.37 22.3978 18.7066 21.6432 18.0682 21.0082C17.7464 20.688 17.6702 20.218 17.7822 19.7999C17.8942 19.3819 18.1953 19.0129 18.6341 18.8965C19.5044 18.6658 20.4562 18.344 21.1947 17.9176C21.9332 17.4913 22.6878 16.8279 23.3228 16.1895Z" fill="url(#paint6_radial_2_26)" stroke="url(#paint7_linear_2_26)" stroke-width="0.04"/>
<path d="M18.0822 20.9947C17.4505 20.3665 17.7782 19.1436 18.6394 18.9153C19.5103 18.6845 20.4641 18.363 21.2049 17.9353C21.9457 17.5076 22.701 16.8423 23.3364 16.2035C23.9647 15.5718 25.1875 15.8995 25.4158 16.7607C25.6467 17.6316 25.9681 18.5854 26.3958 19.3262C26.8235 20.067 27.4888 20.8223 28.1277 21.4577C28.7593 22.086 28.4317 23.3088 27.5705 23.5371C26.6995 23.768 25.7457 24.0894 25.0049 24.5171C24.2641 24.9448 23.5089 25.6101 22.8734 26.249C22.2452 26.8806 21.0223 26.553 20.794 25.6918C20.5632 24.8208 20.2417 23.867 19.814 23.1262C19.3863 22.3854 18.721 21.6302 18.0822 20.9947Z" fill="url(#paint8_linear_2_26)"/>
<g filter="url(#filter3_d_2_26)">
<path d="M20.2979 20.5254C20.2979 20.5254 22.4566 20.9876 22.7788 20.8016C23.101 20.6156 23.8095 18.4051 23.8095 18.4051C23.8095 18.4051 23.3178 20.6737 23.5038 20.9959C23.6898 21.3181 25.9003 22.0265 25.9003 22.0265C25.9003 22.0265 23.6318 21.5348 23.3095 21.7209C22.9873 21.9069 22.3083 24.0075 22.3083 24.0075C22.3083 24.0075 22.7706 21.8488 22.5845 21.5266C22.3985 21.2044 20.2979 20.5254 20.2979 20.5254Z" fill="url(#paint9_radial_2_26)" shape-rendering="crispEdges"/>
</g>
</g>
<path d="M46.1115 20.992H42.3035L41.0555 28H35.2955L39.3595 4.96H49.1195C51.5302 4.96 53.2475 5.51467 54.2715 6.624C55.0182 7.47733 55.3915 8.56533 55.3915 9.888C55.3915 10.336 55.3488 10.8053 55.2635 11.296L54.6235 14.912C54.3035 16.6827 53.3648 18.144 51.8075 19.296C50.2502 20.4267 48.3515 20.992 46.1115 20.992ZM47.1035 9.952H44.2235L43.1675 16H46.0155C47.7648 16 48.7782 15.2213 49.0555 13.664L49.2795 12.352C49.3222 12.16 49.3435 11.904 49.3435 11.584C49.3435 11.264 49.1835 10.912 48.8635 10.528C48.5435 10.144 47.9568 9.952 47.1035 9.952ZM68.6938 28H54.1017L58.1658 4.96H63.9257L60.7578 23.008H69.5898L68.6938 28ZM82.106 4.736C87.2473 4.736 89.818 6.83733 89.818 11.04C89.818 11.744 89.7433 12.5013 89.594 13.312L88.474 19.712C87.962 22.6773 86.8527 24.8747 85.146 26.304C83.4393 27.7333 81.0393 28.448 77.946 28.448C74.8527 28.448 72.698 27.7333 71.482 26.304C70.65 25.3227 70.234 23.968 70.234 22.24C70.234 21.472 70.3193 20.6293 70.49 19.712L71.61 13.312C72.6127 7.59467 76.1113 4.736 82.106 4.736ZM78.81 23.488C79.8767 23.488 80.73 23.2107 81.37 22.656C82.01 22.1013 82.458 21.0773 82.714 19.584L83.802 13.44C83.866 13.0133 83.898 12.6293 83.898 12.288C83.898 10.56 83.0233 9.696 81.274 9.696C79.0767 9.73867 77.7647 10.9867 77.338 13.44L76.25 19.584C76.1647 20.1173 76.122 20.672 76.122 21.248C76.122 22.7413 77.018 23.488 78.81 23.488ZM102.652 4.96C105.084 4.96 106.812 5.49333 107.836 6.56C108.604 7.37067 108.988 8.39467 108.988 9.632C108.988 10.0587 108.945 10.5067 108.86 10.976L108.572 12.512C108.337 13.728 107.879 14.6773 107.196 15.36C106.535 16.0427 105.948 16.384 105.436 16.384L105.404 16.64C106.001 16.64 106.609 16.9707 107.228 17.632C107.847 18.2933 108.156 19.072 108.156 19.968C108.156 20.3307 108.113 20.7147 108.028 21.12L107.836 22.112C107.495 23.9467 106.673 25.3867 105.372 26.432C104.092 27.4773 102.3 28 99.996 28H89.308L93.372 4.96H102.652ZM99.772 18.592H96.732L95.964 23.008H99.004C99.0467 23.008 99.0893 23.008 99.132 23.008C100.113 23.008 100.892 22.784 101.468 22.336C102.044 21.8667 102.332 21.3013 102.332 20.64C102.332 19.2747 101.479 18.592 99.772 18.592ZM100.636 9.952H98.236L97.404 14.72H99.772C101.82 14.72 102.844 13.824 102.844 12.032C102.844 11.4133 102.652 10.912 102.268 10.528C101.905 10.144 101.361 9.952 100.636 9.952ZM118.563 4.96L114.531 28H108.739L112.803 4.96H118.563ZM139.276 4.96L135.244 28H129.452L125.42 15.392L123.244 28H117.452L121.516 4.96H127.468L131.436 16.736L133.516 4.96H139.276Z" fill="black"/>
<defs>
<filter id="filter0_d_2_26" x="13.9748" y="-0.0251575" width="16.4478" height="16.4478" filterUnits="userSpaceOnUse" color-interpolation-filters="sRGB">
<feFlood flood-opacity="0" result="BackgroundImageFix"/>
<feColorMatrix in="SourceAlpha" type="matrix" values="0 0 0 0 0 0 0 0 0 0 0 0 0 0 0 0 0 0 127 0" result="hardAlpha"/>
<feOffset/>
<feGaussianBlur stdDeviation="2.01258"/>
<feComposite in2="hardAlpha" operator="out"/>
<feColorMatrix type="matrix" values="0 0 0 0 0 0 0 0 0 0 0 0 0 0 0 0 0 0 1 0"/>
<feBlend mode="normal" in2="BackgroundImageFix" result="effect1_dropShadow_2_26"/>
<feBlend mode="normal" in="SourceGraphic" in2="effect1_dropShadow_2_26" result="shape"/>
</filter>
<filter id="filter1_d_2_26" x="0.252144" y="17.9075" width="12.8477" height="12.8477" filterUnits="userSpaceOnUse" color-interpolation-filters="sRGB">
<feFlood flood-opacity="0" result="BackgroundImageFix"/>
<feColorMatrix in="SourceAlpha" type="matrix" values="0 0 0 0 0 0 0 0 0 0 0 0 0 0 0 0 0 0 127 0" result="hardAlpha"/>
<feOffset/>
<feGaussianBlur stdDeviation="2.01258"/>
<feComposite in2="hardAlpha" operator="out"/>
<feColorMatrix type="matrix" values="0 0 0 0 0 0 0 0 0 0 0 0 0 0 0 0 0 0 1 0"/>
<feBlend mode="normal" in2="BackgroundImageFix" result="effect1_dropShadow_2_26"/>
<feBlend mode="normal" in="SourceGraphic" in2="effect1_dropShadow_2_26" result="shape"/>
</filter>
<filter id="filter2_d_2_26" x="1.63442" y="4.16422" width="18.7599" height="18.7599" filterUnits="userSpaceOnUse" color-interpolation-filters="sRGB">
<feFlood flood-opacity="0" result="BackgroundImageFix"/>
<feColorMatrix in="SourceAlpha" type="matrix" values="0 0 0 0 0 0 0 0 0 0 0 0 0 0 0 0 0 0 127 0" result="hardAlpha"/>
<feOffset dy="0.56"/>
<feGaussianBlur stdDeviation="1.12"/>
<feComposite in2="hardAlpha" operator="out"/>
<feColorMatrix type="matrix" values="0 0 0 0 0 0 0 0 0 0 0 0 0 0 0 0 0 0 1 0"/>
<feBlend mode="normal" in2="BackgroundImageFix" result="effect1_dropShadow_2_26"/>
<feBlend mode="normal" in="SourceGraphic" in2="effect1_dropShadow_2_26" result="shape"/>
</filter>
<filter id="filter3_d_2_26" x="19.3881" y="17.7228" width="7.42193" height="7.42193" filterUnits="userSpaceOnUse" color-interpolation-filters="sRGB">
<feFlood flood-opacity="0" result="BackgroundImageFix"/>
<feColorMatrix in="SourceAlpha" type="matrix" values="0 0 0 0 0 0 0 0 0 0 0 0 0 0 0 0 0 0 127 0" result="hardAlpha"/>
<feOffset dy="0.22745"/>
<feGaussianBlur stdDeviation="0.4549"/>
<feComposite in2="hardAlpha" operator="out"/>
<feColorMatrix type="matrix" values="0 0 0 0 0 0 0 0 0 0 0 0 0 0 0 0 0 0 1 0"/>
<feBlend mode="normal" in2="BackgroundImageFix" result="effect1_dropShadow_2_26"/>
<feBlend mode="normal" in="SourceGraphic" in2="effect1_dropShadow_2_26" result="shape"/>
</filter>
<linearGradient id="paint0_linear_2_26" x1="10.974" y1="22.2492" x2="10.875" y2="2.74717" gradientUnits="userSpaceOnUse">
<stop/>
<stop offset="1" stop-color="#0A82EC"/>
</linearGradient>
<radialGradient id="paint1_radial_2_26" cx="0" cy="0" r="1" gradientUnits="userSpaceOnUse" gradientTransform="translate(10.8744 12.8442) scale(8.96 12.6177)">
<stop stop-color="#062686"/>
<stop offset="1" stop-color="#0AECE0"/>
</radialGradient>
<linearGradient id="paint2_linear_2_26" x1="4.43443" y1="5.42416" x2="16.7544" y2="22.3642" gradientUnits="userSpaceOnUse">
<stop stop-color="white"/>
<stop offset="1" stop-color="white" stop-opacity="0.71"/>
</linearGradient>
<linearGradient id="paint3_linear_2_26" x1="7.23443" y1="9.34416" x2="15.6344" y2="17.1842" gradientUnits="userSpaceOnUse">
<stop stop-color="#168AF6"/>
<stop offset="1" stop-color="#51F249"/>
</linearGradient>
<linearGradient id="paint4_linear_2_26" x1="4.43443" y1="5.42416" x2="16.7544" y2="22.3642" gradientUnits="userSpaceOnUse">
<stop stop-color="white"/>
<stop offset="1" stop-color="white" stop-opacity="0.71"/>
</linearGradient>
<radialGradient id="paint5_radial_2_26" cx="0" cy="0" r="1" gradientUnits="userSpaceOnUse" gradientTransform="translate(10.8744 12.8442) scale(7.28)">
<stop stop-color="white"/>
<stop offset="1" stop-color="white" stop-opacity="0.1"/>
</radialGradient>
<radialGradient id="paint6_radial_2_26" cx="0" cy="0" r="1" gradientUnits="userSpaceOnUse" gradientTransform="translate(23.0178 21.2764) rotate(-75) scale(4.8 7.0152)">
<stop stop-color="#032927"/>
<stop offset="1" stop-color="#0AECE0"/>
</radialGradient>
<linearGradient id="paint7_linear_2_26" x1="16.7079" y1="24.3479" x2="30.6732" y2="18.9795" gradientUnits="userSpaceOnUse">
<stop stop-color="white"/>
<stop offset="1" stop-color="white" stop-opacity="0.71"/>
</linearGradient>
<linearGradient id="paint8_linear_2_26" x1="29.5252" y1="22.9465" x2="18.0135" y2="19.862" gradientUnits="userSpaceOnUse">
<stop stop-color="#0AACEC"/>
<stop offset="1" stop-color="#15F1A4"/>
</linearGradient>
<radialGradient id="paint9_radial_2_26" cx="0" cy="0" r="1" gradientUnits="userSpaceOnUse" gradientTransform="translate(23.0442 21.2612) rotate(-74.9997) scale(2.95685)">
<stop stop-color="white"/>
<stop offset="1" stop-color="white" stop-opacity="0.1"/>
</radialGradient>
</defs>
</svg>
